<svg aria-hidden="true" style="position: absolute; width: 0; height: 0; overflow: hidden;" version="1.1" xmlns="http://www.w3.org/2000/svg" xmlns:xlink="http://www.w3.org/1999/xlink">
<defs>
<symbol id="cart" viewBox="0 0 32 32">
<path d="M22.038 8c-0.025-0.108-0.051-0.215-0.078-0.323-0.352-1.408-0.906-2.938-1.81-4.143-0.932-1.243-2.293-2.2-4.15-2.2s-3.218 0.957-4.15 2.2c-0.904 1.205-1.458 2.735-1.81 4.143-0.027 0.108-0.053 0.216-0.078 0.323h-2.134c-2.106 0-3.851 1.633-3.991 3.734l-0.978 14.667c-0.154 2.309 1.677 4.266 3.991 4.266h18.299c2.314 0 4.145-1.957 3.991-4.266l-0.978-14.667c-0.14-2.101-1.885-3.734-3.991-3.734h-2.134zM9.962 19.333c0.764 0 2.035-5.242 2.038-6.002 0-0.032 0.001-0.063 0.001-0.095 0.001-0.070 0.004-0.176 0.008-0.313 0.010-0.274 0.030-0.669 0.069-1.145 0.028-0.338 0.066-0.713 0.117-1.111h7.609c0.051 0.398 0.089 0.773 0.117 1.111 0.040 0.476 0.059 0.871 0.069 1.145 0.005 0.137 0.007 0.243 0.009 0.313 0.001 0.033 0.001 0.065 0.001 0.098 0 0 0.627 5.999 1.96 5.999s0.707-6.002 0.707-6.002c-0-0.047-0.001-0.094-0.001-0.14-0.001-0.086-0.004-0.209-0.010-0.364-0.011-0.309-0.033-0.747-0.077-1.271-0.023-0.273-0.052-0.572-0.088-0.889h1.681c0.702 0 1.284 0.544 1.33 1.245l0.978 14.667c0.051 0.77-0.559 1.422-1.33 1.422h-18.299c-0.771 0-1.382-0.652-1.33-1.422l0.978-14.667c0.047-0.7 0.628-1.245 1.33-1.245h1.681c-0.037 0.318-0.065 0.616-0.088 0.889-0.044 0.524-0.066 0.962-0.077 1.271-0.006 0.155-0.008 0.278-0.010 0.364-0.001 0.046-0.001 0.092-0.002 0.137-0.001 0.761-0.134 6.005 0.629 6.005zM12.711 8h6.577c-0.308-1.129-0.727-2.14-1.272-2.867-0.568-0.757-1.207-1.133-2.017-1.133s-1.449 0.376-2.017 1.133c-0.545 0.726-0.964 1.738-1.272 2.867z"></path>
</symbol>
<symbol id="favorites" viewBox="0 0 32 32">
<path d="M4.652 8.005c-0.968 1.659-1.286 3.96-0.692 6.338 0.214 0.856 0.836 1.956 1.821 3.222 0.967 1.242 2.2 2.54 3.507 3.785 2.591 2.469 5.379 4.648 6.712 5.655 1.333-1.007 4.121-3.186 6.711-5.655 1.307-1.245 2.54-2.543 3.507-3.785 0.986-1.266 1.608-2.366 1.822-3.222 0.594-2.378 0.276-4.679-0.692-6.338-0.944-1.619-2.521-2.672-4.682-2.672-1.879 0-3.204 1.39-4.141 3.263-0.45 0.9-0.756 1.814-0.949 2.511-0.096 0.346-0.163 0.632-0.205 0.829-0.149 0.696-0.952 0.731-1.371 0.731s-1.224-0.041-1.371-0.731c-0.042-0.196-0.109-0.483-0.205-0.829-0.194-0.697-0.499-1.61-0.949-2.511-0.937-1.873-2.261-3.263-4.141-3.263-2.16 0-3.737 1.053-4.682 2.672zM16 7.693c0.045-0.096 0.092-0.193 0.141-0.29 1.063-2.127 4.405-6.070 7.859-6.070 3.173 0 4.263 2.947 5.652 5.328 1.366 2.341 1.714 5.373 0.975 8.329-0.35 1.4-1.246 2.854-2.304 4.213-1.077 1.384-2.412 2.782-3.771 4.077-2.719 2.592-5.624 4.856-6.977 5.877-0.934 0.705-2.215 0.705-3.149 0-1.353-1.021-4.258-3.285-6.977-5.877-1.359-1.295-2.694-2.694-3.771-4.077-1.058-1.359-1.954-2.813-2.304-4.213-0.739-2.955-0.391-5.987 0.975-8.329 1.389-2.381 3.145-5.328 6.318-5.328 3.454 0 6.129 3.944 7.193 6.070 0.048 0.097 0.095 0.193 0.141 0.29z"></path>
</symbol>
<symbol id="logo" viewBox="0 0 77 32">
<path d="M3.118 0.759l-1.454-0.079-0.599-0.126-0.12-0.237c0-0.221 0.15-0.316 0.45-0.316h15.035c7.045 0 11.992 2.262 14.87 6.803 1.649 2.626 2.473 5.743 2.473 9.35 0 1.883-0.27 3.702-0.825 5.458-0.629 1.851-1.499 3.481-2.623 4.937-1.229 1.534-2.728 2.721-4.452 3.591-1.844 0.886-3.912 1.345-6.236 1.345h-19.173c-0.315 0-0.465-0.111-0.465-0.3 0-0.206 0.225-0.316 0.644-0.316l3.673-0.237c0.57-0.080 0.975-0.254 1.17-0.491l0.375-0.554c0.135-0.379 0.21-0.948 0.225-1.724v-25.092c0-0.981-0.525-1.582-1.544-1.82l-1.425-0.19zM11.213 1.187l-0.105 0.633v27.86c0 0.316 0.060 0.537 0.18 0.617l0.6 0.095h1.979l4.587-0.174c1.229-0.142 2.278-0.348 3.103-0.633 0.824-0.316 1.604-0.775 2.278-1.328 0.6-0.522 1.214-1.266 1.889-2.215 1.124-1.55 1.933-3.528 2.428-5.948 0.3-1.581 0.45-3.116 0.45-4.588 0-1.297-0.18-2.689-0.555-4.192-0.525-2.167-1.319-4.066-2.444-5.68-2.174-3.132-5.741-4.683-10.673-4.683h-3.043c-0.344-0.032-0.569 0.047-0.674 0.237zM36.726 31.246c-0.030-0.19 0.12-0.269 0.45-0.269l1.049-0.032c0.57-0.079 0.915-0.284 1.049-0.601l0.195-1.139v-9.192c0-0.348-0.12-0.617-0.345-0.775l-0.78-0.080-1.049 0.301-0.57-0.032c-0.075-0.19 0.15-0.364 0.674-0.522 1.244-0.348 2.339-0.791 3.268-1.345 0.569-0.348 0.974-0.538 1.154-0.617l0.45-0.047c0.15 0.031 0.225 0.348 0.225 0.917v11.58c0 0.553 0.119 0.949 0.345 1.186 0.269 0.285 0.899 0.427 1.873 0.427 0.345 0 0.524 0.080 0.555 0.253 0 0.143-0.105 0.19-0.285 0.19h-7.99c-0.18 0.001-0.27-0.078-0.27-0.204zM72.103 19.855c-0.734 0.807-1.229 1.756-1.499 2.895v6.724c0 0.601 0.195 1.028 0.6 1.297l0.915 0.173 0.959 0.111c0.225 0.032 0.316 0.080 0.316 0.206l-0.045 0.111-0.255 0.080h-8.020c-0.239 0-0.374-0.080-0.374-0.206l0.225-0.19 1.35-0.111c0.524-0.095 0.854-0.284 1.034-0.569l0.225-0.712v-9.492l-0.15-0.696-0.254-0.158c-0.076-0.079-0.195-0.126-0.376-0.158-0.225-0.015-0.495 0.032-0.779 0.158l-0.764 0.222-0.435-0.111c-0.075-0.111-0.045-0.19 0.060-0.237l0.644-0.285c1.469-0.459 2.653-0.933 3.478-1.423l1.019-0.586 0.45 0.031 0.18 0.396v3.48c1.124-1.93 2.024-3.116 2.639-3.512 0.374-0.237 0.734-0.427 1.004-0.506l0.525-0.047c0.33-0.032 0.705 0.079 1.124 0.364 0.57 0.348 0.87 0.87 0.899 1.534 0.030 0.554-0.12 0.982-0.45 1.313-0.3 0.269-0.6 0.349-0.869 0.269-0.255-0.047-0.45-0.158-0.584-0.316l-0.42-0.553c-0.33-0.507-0.644-0.665-1.019-0.522-0.436 0.125-0.886 0.474-1.351 1.027zM40.774 6.85c-0.555 0-1.005 0.206-1.379 0.601-0.405 0.396-0.6 0.902-0.57 1.487-0.030 0.554 0.165 1.029 0.57 1.424 0.374 0.396 0.824 0.601 1.379 0.601 0.524 0 0.989-0.206 1.364-0.601s0.585-0.87 0.585-1.424c0-0.586-0.21-1.092-0.585-1.487s-0.84-0.601-1.364-0.601zM48.719 19.475c0.539-0.759 1.215-1.392 2.024-1.898 0.72-0.443 1.439-0.728 2.189-0.871l2.773-0.173c1.004 0.047 1.934 0.253 2.773 0.648 2.024 0.949 3.298 2.69 3.777 5.221 0.495 2.563 0.076 4.731-1.244 6.487-1.124 1.487-2.608 2.436-4.482 2.847-1.963 0.459-3.792 0.316-5.442-0.395-2.144-0.918-3.447-2.737-3.868-5.395-0.375-2.515 0.12-4.651 1.499-6.471zM57.503 18.763c-0.914-1.075-2.068-1.55-3.463-1.424-1.348 0.143-2.383 0.933-3.058 2.436-0.614 1.361-0.84 3.023-0.614 4.984 0.164 1.946 0.75 3.496 1.693 4.683 1.005 1.25 2.144 1.772 3.418 1.535 1.334-0.269 2.309-1.029 2.954-2.294 0.629-1.297 0.854-2.974 0.704-5.11-0.179-2.136-0.704-3.718-1.634-4.81z"></path>
</symbol>
<symbol id="arrow-left" viewBox="0 0 102 32">
<path d="M0.586 14.586c-0.781 0.781-0.781 2.047 0 2.828l12.728 12.728c0.781 0.781 2.047 0.781 2.828 0s0.781-2.047 0-2.828l-11.314-11.314 11.314-11.314c0.781-0.781 0.781-2.047 0-2.828s-2.047-0.781-2.828 0l-12.728 12.728zM102 14h-100v4h100v-4z"></path>
</symbol>
<symbol id="arrow-right" viewBox="0 0 102 32">
<path d="M101.414 17.414c0.781-0.781 0.781-2.047 0-2.828l-12.728-12.728c-0.781-0.781-2.047-0.781-2.828 0s-0.781 2.047 0 2.828l11.314 11.314-11.314 11.314c-0.781 0.781-0.781 2.047 0 2.828s2.047 0.781 2.828 0l12.728-12.728zM0 18h100v-4h-100v4z"></path>
</symbol>
<symbol id="arrow-down" viewBox="0 0 10 32">
<path d="M4.576 31.816c0.245 0.245 0.642 0.245 0.887 0l3.993-3.993c0.245-0.245 0.245-0.642 0-0.887s-0.642-0.245-0.887 0l-3.549 3.549-3.549-3.549c-0.245-0.245-0.642-0.245-0.887 0s-0.245 0.642 0 0.887l3.993 3.993zM4.392 0v31.373h1.255v-31.373h-1.255z"></path>
</symbol>
<symbol id="twiter" viewBox="0 0 31 32">
<path d="M25.322 5.656c0.446-0.106 0.757-0.21 1.012-0.319 0.357-0.153 0.653-0.336 1.121-0.645 0.393-0.259 0.897-0.282 1.312-0.059s0.673 0.656 0.673 1.127c0 1.384-0.172 2.518-0.572 3.516-0.336 0.839-0.808 1.521-1.372 2.142-0.238 4.305-1.485 7.685-3.39 10.247-1.974 2.655-4.602 4.355-7.371 5.306-2.761 0.949-5.679 1.161-8.292 0.84-2.597-0.319-4.997-1.179-6.67-2.48-0.458-0.356-0.619-0.976-0.392-1.511s0.785-0.849 1.359-0.767c1.646 0.235 3.231-0.139 4.533-0.674-0.256-0.14-0.498-0.291-0.723-0.446-1.187-0.822-2.145-1.938-2.576-2.8-0.178-0.357-0.18-0.776-0.005-1.135 0.090-0.185 0.223-0.343 0.383-0.463-1.733-1.431-2.433-3.409-2.433-4.735 0-0.394 0.182-0.766 0.492-1.009 0.131-0.102 0.278-0.176 0.433-0.221-0.13-0.38-0.23-0.764-0.307-1.135-0.34-1.647-0.31-3.506 0.060-4.985 0.127-0.506 0.548-0.885 1.064-0.957s1.026 0.176 1.286 0.628c1.379 2.391 3.923 3.852 6.291 4.718 1.113 0.407 2.144 0.666 2.917 0.826 0.167-1.562 0.603-2.851 1.273-3.874 0.883-1.35 2.115-2.149 3.438-2.505 2.282-0.614 4.814 0.086 6.455 1.371zM13.758 13.195c-0.877-0.176-2.082-0.472-3.398-0.953-1.737-0.635-3.755-1.625-5.444-3.159 0.030 0.282 0.073 0.562 0.129 0.835 0.283 1.371 0.809 2.139 1.287 2.378 0.584 0.292 0.855 0.977 0.628 1.589-0.307 0.829-1.113 0.897-1.846 0.714 0.589 0.884 1.649 1.765 3.416 2.060 0.61 0.102 1.059 0.624 1.069 1.242s-0.423 1.155-1.029 1.276l-1.114 0.223c0.17 0.148 0.355 0.294 0.552 0.43 0.892 0.618 1.788 0.884 2.561 0.691 0.579-0.145 1.181 0.13 1.452 0.662s0.137 1.181-0.322 1.563c-0.824 0.686-1.787 1.236-2.752 1.693-0.453 0.215-0.959 0.426-1.509 0.613 0.423 0.090 0.863 0.164 1.317 0.22 2.266 0.279 4.789 0.091 7.148-0.72 2.351-0.808 4.524-2.228 6.149-4.413 1.623-2.182 2.756-5.203 2.908-9.303 0.012-0.323 0.146-0.629 0.374-0.858 0.576-0.576 1.051-1.235 1.285-2.021-0.409 0.128-0.871 0.238-1.42 0.343-0.417 0.080-0.846-0.052-1.145-0.352-0.979-0.979-2.914-1.622-4.522-1.189-0.757 0.204-1.445 0.645-1.962 1.435-0.528 0.806-0.931 2.063-0.931 3.969 0 0.362-0.153 0.707-0.422 0.95-0.637 0.575-1.71 0.235-2.46 0.085z"></path>
</symbol>
<symbol id="youtube" viewBox="0 0 31 32">
<path d="M12.155 9.769c-0.396-0.226-0.883-0.225-1.278 0.004s-0.638 0.651-0.638 1.107v10.24c0 0.456 0.243 0.878 0.638 1.107s0.881 0.231 1.278 0.004l8.96-5.12c0.399-0.228 0.645-0.652 0.645-1.111s-0.246-0.883-0.645-1.111l-8.96-5.12zM17.9 16l-5.1 2.914v-5.829l5.1 2.914z"></path>
<path d="M0 16c0 4.8 0 7.2 1.222 8.882 0.395 0.543 0.873 1.021 1.416 1.416 1.682 1.222 4.082 1.222 8.882 1.222h7.68c4.8 0 7.2 0 8.882-1.222 0.543-0.395 1.021-0.873 1.416-1.416 1.222-1.682 1.222-4.082 1.222-8.882s0-7.2-1.222-8.882c-0.395-0.543-0.873-1.021-1.416-1.416-1.682-1.222-4.082-1.222-8.882-1.222h-7.68c-4.8 0-7.199 0-8.882 1.222-0.543 0.395-1.021 0.873-1.416 1.416-1.222 1.682-1.222 4.082-1.222 8.882zM11.52 7.040h7.68c2.457 0 4.094 0.004 5.334 0.138 1.192 0.129 1.711 0.354 2.043 0.595 0.326 0.237 0.613 0.524 0.85 0.85 0.241 0.332 0.466 0.851 0.595 2.043 0.134 1.24 0.138 2.877 0.138 5.334s-0.003 4.094-0.138 5.334c-0.129 1.192-0.354 1.711-0.595 2.043-0.237 0.326-0.524 0.613-0.85 0.85-0.332 0.241-0.851 0.466-2.043 0.595-1.24 0.134-2.877 0.138-5.334 0.138h-7.68c-2.457 0-4.094-0.003-5.334-0.138-1.192-0.129-1.711-0.354-2.043-0.595-0.326-0.237-0.613-0.524-0.85-0.85-0.241-0.332-0.466-0.851-0.595-2.043-0.134-1.24-0.138-2.877-0.138-5.334s0.004-4.094 0.138-5.334c0.129-1.192 0.354-1.711 0.595-2.043 0.237-0.326 0.524-0.613 0.85-0.85 0.332-0.241 0.851-0.466 2.043-0.595 1.24-0.134 2.877-0.138 5.334-0.138z"></path>
</symbol>
<symbol id="facebook" viewBox="0 0 31 32">
<path d="M25.6 1.92h-20.48c-2.121 0-3.84 1.719-3.84 3.84v20.48c0 2.121 1.719 3.84 3.84 3.84h20.48c2.121 0 3.84-1.719 3.84-3.84v-20.48c0-2.121-1.719-3.84-3.84-3.84zM25.6 4.48c0.707 0 1.28 0.573 1.28 1.28v20.48c0 0.707-0.573 1.28-1.28 1.28h-6.4v-8.96h2.658c0.551 0 1.040-0.352 1.214-0.875l0.567-1.701c0.207-0.622-0.256-1.264-0.911-1.264h-3.528v-2.56c0-0.64 0.64-1.28 1.28-1.28h2.56c0.707 0 1.28-0.573 1.28-1.28v-0.878c0-0.413-0.264-0.784-0.664-0.89-1.678-0.443-3.176-0.443-3.176-0.443-3.2 0-5.12 2.211-5.12 4.131v3.2h-2.56c-0.707 0-1.28 0.573-1.28 1.28v1.28c0 0.707 0.573 1.28 1.28 1.28h2.56v8.96h-10.24c-0.707 0-1.28-0.573-1.28-1.28v-20.48c0-0.707 0.573-1.28 1.28-1.28h20.48z"></path>
</symbol>
<symbol id="instagram" viewBox="0 0 31 32">
<path d="M15.36 23.68c-4.242 0-7.68-3.438-7.68-7.68s3.438-7.68 7.68-7.68c4.242 0 7.68 3.438 7.68 7.68s-3.438 7.68-7.68 7.68zM15.36 21.12c2.828 0 5.12-2.292 5.12-5.12s-2.292-5.12-5.12-5.12c-2.828 0-5.12 2.292-5.12 5.12s2.292 5.12 5.12 5.12z"></path>
<path d="M23.040 7.040c-0.707 0-1.28 0.573-1.28 1.28s0.573 1.28 1.28 1.28c0.707 0 1.28-0.573 1.28-1.28s-0.573-1.28-1.28-1.28z"></path>
<path d="M2.117 6.113c0.736-1.445 1.911-2.62 3.356-3.356 1.643-0.837 3.793-0.837 8.095-0.837h3.584c4.301 0 6.452 0 8.095 0.837 1.445 0.736 2.62 1.911 3.356 3.356 0.837 1.643 0.837 3.793 0.837 8.095v3.584c0 4.301 0 6.452-0.837 8.095-0.736 1.445-1.911 2.62-3.356 3.356-1.643 0.837-3.793 0.837-8.095 0.837h-3.584c-4.301 0-6.452 0-8.095-0.837-1.445-0.736-2.62-1.911-3.356-3.356-0.837-1.643-0.837-3.793-0.837-8.095v-3.584c0-4.301 0-6.452 0.837-8.095zM17.152 4.48h-3.584c-2.193 0-3.684 0.002-4.836 0.096-1.122 0.092-1.696 0.258-2.097 0.462-0.963 0.491-1.747 1.274-2.238 2.238-0.204 0.4-0.37 0.974-0.462 2.097-0.094 1.152-0.096 2.643-0.096 4.836v3.584c0 2.193 0.002 3.683 0.096 4.836 0.092 1.122 0.258 1.696 0.462 2.097 0.491 0.963 1.274 1.747 2.238 2.237 0.4 0.204 0.974 0.37 2.097 0.462 1.152 0.094 2.643 0.096 4.836 0.096h3.584c2.193 0 3.683-0.002 4.836-0.096 1.122-0.092 1.696-0.258 2.097-0.462 0.963-0.491 1.747-1.274 2.237-2.237 0.204-0.4 0.37-0.974 0.462-2.097 0.094-1.152 0.096-2.643 0.096-4.836v-3.584c0-2.193-0.002-3.684-0.096-4.836-0.092-1.122-0.258-1.696-0.462-2.097-0.491-0.963-1.274-1.747-2.237-2.238-0.4-0.204-0.974-0.37-2.097-0.462-1.152-0.094-2.643-0.096-4.836-0.096z"></path>
</symbol>
<symbol id="play" viewBox="0 0 32 32">
<path fill="#fff" style="fill: var(--color1, #fff)" opacity="0.7" d="M32 16c0 8.837-7.163 16-16 16s-16-7.163-16-16c0-8.837 7.163-16 16-16s16 7.163 16 16z"></path>
<path fill="#7449bb" style="fill: var(--color2, #7449bb)" d="M22.4 16l-9.6 5.543v-11.085l9.6 5.543z"></path>
</symbol>
<symbol id="close" viewBox="0 0 32 32">
<path d="M5.86 4.040l-1.82 1.82 10.14 10.14-10.2 10.22 1.8 1.8 10.22-10.2 10.2 10.2 1.82-1.82-10.2-10.2 10.14-10.14-1.82-1.82-10.14 10.14z"></path>
</symbol>
<symbol id="menu" viewBox="0 0 32 32">
<path d="M3.2 5.12c-0.005-0-0.012-0-0.018-0-0.707 0-1.28 0.573-1.28 1.28s0.573 1.28 1.28 1.28c0.006 0 0.013-0 0.019-0h25.599c0.005 0 0.012 0 0.018 0 0.707 0 1.28-0.573 1.28-1.28s-0.573-1.28-1.28-1.28c-0.006 0-0.013 0-0.019 0h-25.599zM3.2 14.72c-0.005-0-0.012-0-0.018-0-0.707 0-1.28 0.573-1.28 1.28s0.573 1.28 1.28 1.28c0.006 0 0.013-0 0.019-0h25.599c0.005 0 0.012 0 0.018 0 0.707 0 1.28-0.573 1.28-1.28s-0.573-1.28-1.28-1.28c-0.006 0-0.013 0-0.019 0h-25.599zM3.2 24.32c-0.005-0-0.012-0-0.018-0-0.707 0-1.28 0.573-1.28 1.28s0.573 1.28 1.28 1.28c0.006 0 0.013-0 0.019-0h25.599c0.005 0 0.012 0 0.018 0 0.707 0 1.28-0.573 1.28-1.28s-0.573-1.28-1.28-1.28c-0.006 0-0.013 0-0.019 0h-25.599z"></path>
</symbol>
</defs>
</svg>
