<svg aria-hidden="true" style="position: absolute; width: 0; height: 0; overflow: hidden;" version="1.1" xmlns="http://www.w3.org/2000/svg" xmlns:xlink="http://www.w3.org/1999/xlink">
<defs>
<symbol id="cart" viewBox="0 0 32 32">
<path d="M22.038 8c-0.025-0.108-0.051-0.215-0.078-0.323-0.352-1.408-0.906-2.938-1.81-4.143-0.932-1.243-2.293-2.2-4.15-2.2s-3.218 0.957-4.15 2.2c-0.904 1.205-1.458 2.735-1.81 4.143-0.027 0.108-0.053 0.216-0.078 0.323h-2.134c-2.106 0-3.851 1.633-3.991 3.734l-0.978 14.667c-0.154 2.309 1.677 4.266 3.991 4.266h18.299c2.314 0 4.145-1.957 3.991-4.266l-0.978-14.667c-0.14-2.101-1.885-3.734-3.991-3.734h-2.134zM9.962 19.333c0.764 0 2.035-5.242 2.038-6.002 0-0.032 0.001-0.063 0.001-0.095 0.001-0.070 0.004-0.176 0.008-0.313 0.010-0.274 0.030-0.669 0.069-1.145 0.028-0.338 0.066-0.713 0.117-1.111h7.609c0.051 0.398 0.089 0.773 0.117 1.111 0.040 0.476 0.059 0.871 0.069 1.145 0.005 0.137 0.007 0.243 0.009 0.313 0.001 0.033 0.001 0.065 0.001 0.098 0 0 0.627 5.999 1.96 5.999s0.707-6.002 0.707-6.002c-0-0.047-0.001-0.094-0.001-0.14-0.001-0.086-0.004-0.209-0.010-0.364-0.011-0.309-0.033-0.747-0.077-1.271-0.023-0.273-0.052-0.572-0.088-0.889h1.681c0.702 0 1.284 0.544 1.33 1.245l0.978 14.667c0.051 0.77-0.559 1.422-1.33 1.422h-18.299c-0.771 0-1.382-0.652-1.33-1.422l0.978-14.667c0.047-0.7 0.628-1.245 1.33-1.245h1.681c-0.037 0.318-0.065 0.616-0.088 0.889-0.044 0.524-0.066 0.962-0.077 1.271-0.006 0.155-0.008 0.278-0.010 0.364-0.001 0.046-0.001 0.092-0.002 0.137-0.001 0.761-0.134 6.005 0.629 6.005zM12.711 8h6.577c-0.308-1.129-0.727-2.14-1.272-2.867-0.568-0.757-1.207-1.133-2.017-1.133s-1.449 0.376-2.017 1.133c-0.545 0.726-0.964 1.738-1.272 2.867z"></path>
</symbol>
<symbol id="favorites" viewBox="0 0 32 32">
<path d="M4.652 8.005c-0.968 1.659-1.286 3.96-0.692 6.338 0.214 0.856 0.836 1.956 1.821 3.222 0.967 1.242 2.2 2.54 3.507 3.785 2.591 2.469 5.379 4.648 6.712 5.655 1.333-1.007 4.121-3.186 6.711-5.655 1.307-1.245 2.54-2.543 3.507-3.785 0.986-1.266 1.608-2.366 1.822-3.222 0.594-2.378 0.276-4.679-0.692-6.338-0.944-1.619-2.521-2.672-4.682-2.672-1.879 0-3.204 1.39-4.141 3.263-0.45 0.9-0.756 1.814-0.949 2.511-0.096 0.346-0.163 0.632-0.205 0.829-0.149 0.696-0.952 0.731-1.371 0.731s-1.224-0.041-1.371-0.731c-0.042-0.196-0.109-0.483-0.205-0.829-0.194-0.697-0.499-1.61-0.949-2.511-0.937-1.873-2.261-3.263-4.141-3.263-2.16 0-3.737 1.053-4.682 2.672zM16 7.693c0.045-0.096 0.092-0.193 0.141-0.29 1.063-2.127 4.405-6.070 7.859-6.070 3.173 0 4.263 2.947 5.652 5.328 1.366 2.341 1.714 5.373 0.975 8.329-0.35 1.4-1.246 2.854-2.304 4.213-1.077 1.384-2.412 2.782-3.771 4.077-2.719 2.592-5.624 4.856-6.977 5.877-0.934 0.705-2.215 0.705-3.149 0-1.353-1.021-4.258-3.285-6.977-5.877-1.359-1.295-2.694-2.694-3.771-4.077-1.058-1.359-1.954-2.813-2.304-4.213-0.739-2.955-0.391-5.987 0.975-8.329 1.389-2.381 3.145-5.328 6.318-5.328 3.454 0 6.129 3.944 7.193 6.070 0.048 0.097 0.095 0.193 0.141 0.29z"></path>
</symbol>
<symbol id="logo" viewBox="0 0 77 32">
<path d="M3.118 0.759l-1.454-0.079-0.599-0.126-0.12-0.237c0-0.221 0.15-0.316 0.45-0.316h15.035c7.045 0 11.992 2.262 14.87 6.803 1.649 2.626 2.473 5.743 2.473 9.35 0 1.883-0.27 3.702-0.825 5.458-0.629 1.851-1.499 3.481-2.623 4.937-1.229 1.534-2.728 2.721-4.452 3.591-1.844 0.886-3.912 1.345-6.236 1.345h-19.173c-0.315 0-0.465-0.111-0.465-0.3 0-0.206 0.225-0.316 0.644-0.316l3.673-0.237c0.57-0.080 0.975-0.254 1.17-0.491l0.375-0.554c0.135-0.379 0.21-0.948 0.225-1.724v-25.092c0-0.981-0.525-1.582-1.544-1.82l-1.425-0.19zM11.213 1.187l-0.105 0.633v27.86c0 0.316 0.060 0.537 0.18 0.617l0.6 0.095h1.979l4.587-0.174c1.229-0.142 2.278-0.348 3.103-0.633 0.824-0.316 1.604-0.775 2.278-1.328 0.6-0.522 1.214-1.266 1.889-2.215 1.124-1.55 1.933-3.528 2.428-5.948 0.3-1.581 0.45-3.116 0.45-4.588 0-1.297-0.18-2.689-0.555-4.192-0.525-2.167-1.319-4.066-2.444-5.68-2.174-3.132-5.741-4.683-10.673-4.683h-3.043c-0.344-0.032-0.569 0.047-0.674 0.237zM36.726 31.246c-0.030-0.19 0.12-0.269 0.45-0.269l1.049-0.032c0.57-0.079 0.915-0.284 1.049-0.601l0.195-1.139v-9.192c0-0.348-0.12-0.617-0.345-0.775l-0.78-0.080-1.049 0.301-0.57-0.032c-0.075-0.19 0.15-0.364 0.674-0.522 1.244-0.348 2.339-0.791 3.268-1.345 0.569-0.348 0.974-0.538 1.154-0.617l0.45-0.047c0.15 0.031 0.225 0.348 0.225 0.917v11.58c0 0.553 0.119 0.949 0.345 1.186 0.269 0.285 0.899 0.427 1.873 0.427 0.345 0 0.524 0.080 0.555 0.253 0 0.143-0.105 0.19-0.285 0.19h-7.99c-0.18 0.001-0.27-0.078-0.27-0.204zM72.103 19.855c-0.734 0.807-1.229 1.756-1.499 2.895v6.724c0 0.601 0.195 1.028 0.6 1.297l0.915 0.173 0.959 0.111c0.225 0.032 0.316 0.080 0.316 0.206l-0.045 0.111-0.255 0.080h-8.020c-0.239 0-0.374-0.080-0.374-0.206l0.225-0.19 1.35-0.111c0.524-0.095 0.854-0.284 1.034-0.569l0.225-0.712v-9.492l-0.15-0.696-0.254-0.158c-0.076-0.079-0.195-0.126-0.376-0.158-0.225-0.015-0.495 0.032-0.779 0.158l-0.764 0.222-0.435-0.111c-0.075-0.111-0.045-0.19 0.060-0.237l0.644-0.285c1.469-0.459 2.653-0.933 3.478-1.423l1.019-0.586 0.45 0.031 0.18 0.396v3.48c1.124-1.93 2.024-3.116 2.639-3.512 0.374-0.237 0.734-0.427 1.004-0.506l0.525-0.047c0.33-0.032 0.705 0.079 1.124 0.364 0.57 0.348 0.87 0.87 0.899 1.534 0.030 0.554-0.12 0.982-0.45 1.313-0.3 0.269-0.6 0.349-0.869 0.269-0.255-0.047-0.45-0.158-0.584-0.316l-0.42-0.553c-0.33-0.507-0.644-0.665-1.019-0.522-0.436 0.125-0.886 0.474-1.351 1.027zM40.774 6.85c-0.555 0-1.005 0.206-1.379 0.601-0.405 0.396-0.6 0.902-0.57 1.487-0.030 0.554 0.165 1.029 0.57 1.424 0.374 0.396 0.824 0.601 1.379 0.601 0.524 0 0.989-0.206 1.364-0.601s0.585-0.87 0.585-1.424c0-0.586-0.21-1.092-0.585-1.487s-0.84-0.601-1.364-0.601zM48.719 19.475c0.539-0.759 1.215-1.392 2.024-1.898 0.72-0.443 1.439-0.728 2.189-0.871l2.773-0.173c1.004 0.047 1.934 0.253 2.773 0.648 2.024 0.949 3.298 2.69 3.777 5.221 0.495 2.563 0.076 4.731-1.244 6.487-1.124 1.487-2.608 2.436-4.482 2.847-1.963 0.459-3.792 0.316-5.442-0.395-2.144-0.918-3.447-2.737-3.868-5.395-0.375-2.515 0.12-4.651 1.499-6.471zM57.503 18.763c-0.914-1.075-2.068-1.55-3.463-1.424-1.348 0.143-2.383 0.933-3.058 2.436-0.614 1.361-0.84 3.023-0.614 4.984 0.164 1.946 0.75 3.496 1.693 4.683 1.005 1.25 2.144 1.772 3.418 1.535 1.334-0.269 2.309-1.029 2.954-2.294 0.629-1.297 0.854-2.974 0.704-5.11-0.179-2.136-0.704-3.718-1.634-4.81z"></path>
</symbol>
<symbol id="arrow-left" viewBox="0 0 102 32">
<path d="M0.586 14.586c-0.781 0.781-0.781 2.047 0 2.828l12.728 12.728c0.781 0.781 2.047 0.781 2.828 0s0.781-2.047 0-2.828l-11.314-11.314 11.314-11.314c0.781-0.781 0.781-2.047 0-2.828s-2.047-0.781-2.828 0l-12.728 12.728zM102 14h-100v4h100v-4z"></path>
</symbol>
<symbol id="arrow-right" viewBox="0 0 102 32">
<path d="M101.414 17.414c0.781-0.781 0.781-2.047 0-2.828l-12.728-12.728c-0.781-0.781-2.047-0.781-2.828 0s-0.781 2.047 0 2.828l11.314 11.314-11.314 11.314c-0.781 0.781-0.781 2.047 0 2.828s2.047 0.781 2.828 0l12.728-12.728zM0 18h100v-4h-100v4z"></path>
</symbol>
<symbol id="arrow-down" viewBox="0 0 10 32">
<path d="M4.576 31.816c0.245 0.245 0.642 0.245 0.887 0l3.993-3.993c0.245-0.245 0.245-0.642 0-0.887s-0.642-0.245-0.887 0l-3.549 3.549-3.549-3.549c-0.245-0.245-0.642-0.245-0.887 0s-0.245 0.642 0 0.887l3.993 3.993zM4.392 0v31.373h1.255v-31.373h-1.255z"></path>
</symbol>
</defs>
</svg>
